<svg width="16" height="16" viewBox="0 0 16 16" fill="none" xmlns="http://www.w3.org/2000/svg">
<g clip-path="url(#clip0_4700_2258)">
<path d="M16 8.31567C16 12.5533 12.4103 16.0008 7.99909 16.0008C3.58783 16.0008 0 12.5533 0 8.31567C0 4.07802 3.58784 0.629639 8 0.629639C12.4122 0.629639 16.0009 4.07802 16.0009 8.31567H16Z" fill="#C17400"/>
<path d="M15.083 7.68605C15.083 7.76803 15.082 7.84826 15.0775 7.92937C14.9649 11.0115 12.708 13.5773 9.69939 14.2906C9.15377 14.4206 8.58545 14.4895 7.99989 14.4895C7.45881 14.4895 6.93134 14.4302 6.42476 14.3194C5.89911 14.2052 5.39616 14.0334 4.92136 13.8119C3.72208 13.2546 2.71164 12.3816 2.00533 11.3054C1.79471 10.9844 1.61042 10.6443 1.4579 10.2902C1.10928 9.48699 0.917725 8.60701 0.917725 7.68518C0.917725 7.46976 0.928619 7.25609 0.949499 7.04591C1.21913 4.27779 3.22367 1.98497 5.90456 1.18436C6.56639 0.988131 7.26997 0.880859 7.99989 0.880859C8.44837 0.880859 8.88686 0.920977 9.31264 0.999468C9.70846 1.07011 10.0925 1.17302 10.4611 1.30384C11.7166 1.75298 12.8061 2.53354 13.6104 3.53561C13.9345 3.93853 14.2123 4.37634 14.4347 4.84379C14.8515 5.70894 15.0839 6.67177 15.0839 7.68518L15.083 7.68605Z" fill="#F57600"/>
<path d="M8 0C3.58784 0 0 3.44838 0 7.68603C0 11.9237 3.58784 15.3712 8 15.3712C12.4122 15.3712 16.0009 11.9246 16.0009 7.68603C16.0009 3.44751 12.4113 0 8 0ZM8 14.4895C4.09442 14.4895 0.917839 11.4379 0.917839 7.68603C0.917839 3.93415 4.09442 0.880846 8 0.880846C11.9056 0.880846 15.0831 3.93415 15.0831 7.68516C15.0831 11.4362 11.9047 14.4886 8 14.4886V14.4895Z" fill="#FFC700"/>
<path d="M11.0323 8.9157C10.9379 9.00378 10.8943 9.13198 10.917 9.2567L11.4254 12.0981C11.4808 12.4129 11.1367 12.6536 10.8435 12.5045L8.18529 11.1623C8.06908 11.103 7.93018 11.103 7.81307 11.1623L5.15487 12.5045C4.86164 12.6528 4.51756 12.4129 4.57476 12.0981L5.08225 9.2567C5.10494 9.13198 5.06137 9.00378 4.96695 8.9157L2.81806 6.90283C2.5793 6.67957 2.71093 6.29235 3.03958 6.24699L6.01098 5.83186C6.14171 5.81442 6.25519 5.73506 6.31239 5.62168L7.64148 3.03583C7.78856 2.74977 8.21252 2.74977 8.35959 3.03583L9.68869 5.62168C9.7477 5.73506 9.86028 5.81442 9.9901 5.83186L12.9615 6.24699C13.2901 6.29235 13.4218 6.68044 13.1839 6.90283L11.0332 8.9157H11.0323Z" fill="#FFC700"/>
<g style="mix-blend-mode:overlay" opacity="0.54">
<path d="M5.82209 1.62814C2.56471 2.76016 0.691811 5.96609 1.38723 9.23133C1.51523 9.83222 2.47211 9.57756 2.3441 8.97754C1.76308 6.25128 3.35999 3.49449 6.08536 2.54736C6.68182 2.3398 6.42399 1.41883 5.82118 1.62814H5.82209Z" fill="white"/>
</g>
<g style="mix-blend-mode:overlay" opacity="0.54">
<path d="M2.49937 10.115C1.86115 10.115 1.85933 11.0682 2.49937 11.0682C3.1394 11.0682 3.1394 10.115 2.49937 10.115Z" fill="white"/>
</g>
</g>
<defs>
<clipPath id="clip0_4700_2258">
<rect width="16" height="16" fill="white"/>
</clipPath>
</defs>
</svg>
