<svg width="21" height="16" viewBox="0 0 21 16" fill="none" xmlns="http://www.w3.org/2000/svg">
<path d="M15.7608 9.9357C14.6916 14.2225 10.3499 16.8298 6.06256 15.7608C1.77952 14.6918 -0.830288 10.3507 0.238842 6.06606C1.30797 1.77926 5.64968 -0.83019 9.93489 0.238794C14.2223 1.30778 16.8299 5.6489 15.7608 9.9357Z" fill="#FFC700"/>
<path d="M7.69148 13.0909V2.18182H8.39034V13.0909H7.69148ZM9.7071 5.67188C9.66733 5.29972 9.49971 5.00994 9.20426 4.80256C8.91165 4.59517 8.53096 4.49148 8.06221 4.49148C7.73267 4.49148 7.45 4.54119 7.2142 4.64062C6.97841 4.74006 6.79801 4.875 6.67301 5.04545C6.54801 5.21591 6.48409 5.41051 6.48125 5.62926C6.48125 5.81108 6.52244 5.96875 6.60483 6.10227C6.69006 6.2358 6.80511 6.34943 6.95 6.44318C7.09488 6.53409 7.2554 6.6108 7.43153 6.6733C7.60767 6.7358 7.78523 6.78835 7.9642 6.83097L8.78238 7.03551C9.11193 7.11222 9.42869 7.21591 9.73267 7.34659C10.0395 7.47727 10.3136 7.64205 10.5551 7.84091C10.7994 8.03977 10.9926 8.27983 11.1347 8.56108C11.2767 8.84233 11.3477 9.17187 11.3477 9.54972C11.3477 10.0611 11.217 10.5114 10.9557 10.9006C10.6943 11.2869 10.3165 11.5895 9.82216 11.8082C9.33068 12.0241 8.73551 12.1321 8.03665 12.1321C7.35767 12.1321 6.76818 12.027 6.26818 11.8168C5.77102 11.6065 5.38182 11.2997 5.10057 10.8963C4.82216 10.4929 4.67159 10.0014 4.64886 9.42188H6.20426C6.22699 9.72585 6.32074 9.97869 6.48551 10.1804C6.65028 10.3821 6.86477 10.5327 7.12898 10.6321C7.39602 10.7315 7.69432 10.7812 8.02386 10.7812C8.36761 10.7812 8.66875 10.7301 8.92727 10.6278C9.18863 10.5227 9.39318 10.3778 9.54091 10.1932C9.68863 10.0057 9.76392 9.78693 9.76676 9.53693C9.76392 9.30966 9.69716 9.12216 9.56648 8.97443C9.43579 8.82386 9.25256 8.69886 9.01676 8.59943C8.78381 8.49716 8.51108 8.40625 8.19858 8.3267L7.20568 8.07102C6.48693 7.88636 5.91875 7.60653 5.50113 7.23153C5.08636 6.85369 4.87898 6.35227 4.87898 5.72727C4.87898 5.21307 5.01818 4.76278 5.29659 4.37642C5.57784 3.99006 5.95994 3.69034 6.4429 3.47727C6.92585 3.26136 7.47273 3.15341 8.08352 3.15341C8.70284 3.15341 9.24545 3.26136 9.71136 3.47727C10.1801 3.69034 10.548 3.98722 10.8151 4.3679C11.0821 4.74574 11.2199 5.1804 11.2284 5.67188H9.7071Z" fill="black"/>
<path fill-rule="evenodd" clip-rule="evenodd" d="M16.8891 7.99997C16.8891 7.50905 16.4912 7.11108 16.0003 7.11108C15.5093 7.11108 15.1114 7.50905 15.1114 7.99997V10.6665H12.4446C11.9536 10.6665 11.5557 11.0645 11.5557 11.5554C11.5557 12.0463 11.9536 12.4443 12.4446 12.4443H15.1114V15.1111C15.1114 15.602 15.5093 16 16.0003 16C16.4912 16 16.8891 15.602 16.8891 15.1111V12.4443H19.5557C20.0466 12.4443 20.4446 12.0463 20.4446 11.5554C20.4446 11.0645 20.0466 10.6665 19.5557 10.6665H16.8891V7.99997Z" fill="#02BF2B"/>
</svg>
