<svg width="29" height="28" viewBox="0 0 29 28" fill="none" xmlns="http://www.w3.org/2000/svg">
<rect x="0.5" width="28" height="28" rx="14" fill="#BB6305"/>
<path d="M14.4999 21C13.8559 21 13.3333 20.4785 13.3333 19.8333V8.16667C13.3333 7.52267 13.8559 7 14.4999 7C15.1439 7 15.6666 7.52267 15.6666 8.16667V19.8333C15.6666 20.4785 15.1439 21 14.4999 21Z" fill="white"/>
<path d="M20.3333 15.1666H8.66667C8.02267 15.1666 7.5 14.6439 7.5 13.9999C7.5 13.3559 8.02267 12.8333 8.66667 12.8333H20.3333C20.9785 12.8333 21.5 13.3559 21.5 13.9999C21.5 14.6439 20.9785 15.1666 20.3333 15.1666Z" fill="white"/>
</svg>
