<svg width="18" height="18" viewBox="0 0 18 18" fill="none" xmlns="http://www.w3.org/2000/svg">
<path fill-rule="evenodd" clip-rule="evenodd" d="M6.24848 2.01078C4.5722 2.67122 3.19073 3.91729 2.35612 5.49693H5.05081C5.23666 4.52176 5.49897 3.63302 5.82424 2.87062C5.95358 2.56745 6.09498 2.27932 6.24848 2.01078ZM1.76337 6.98761C1.58566 7.62806 1.49068 8.30293 1.49068 8.99999C1.49068 9.69706 1.58566 10.372 1.76339 11.0124H4.8343C4.7678 10.364 4.73296 9.69006 4.73296 9.00002C4.73296 8.30998 4.7678 7.63604 4.8343 6.98761H1.76337ZM2.35615 12.5031C3.19076 14.0827 4.5722 15.3287 6.24844 15.9892C6.09496 15.7207 5.95357 15.4326 5.82424 15.1294C5.49897 14.367 5.23666 13.4783 5.05081 12.5031H2.35615ZM9.00675 16.5093C9.0045 16.5093 9.00224 16.5093 8.99999 16.5093C8.99777 16.5093 8.99556 16.5093 8.99334 16.5093C8.76159 16.5072 8.4788 16.3987 8.15398 16.0767C7.8229 15.7484 7.49053 15.2363 7.19535 14.5445C6.94574 13.9594 6.73323 13.2705 6.57118 12.5031H11.4289C11.2669 13.2705 11.0543 13.9594 10.8047 14.5445C10.5095 15.2363 10.1772 15.7484 9.84611 16.0767C9.52128 16.3987 9.2385 16.5072 9.00675 16.5093ZM9.01291 18C13.9775 17.993 18 13.9662 18 8.99999C18 4.02943 13.9705 0 8.99999 0C4.02943 0 0 4.02943 0 8.99999C0 13.9663 4.02253 17.9931 8.98721 18C8.99148 18 8.99576 18 9.00004 18C9.00433 18 9.00862 18 9.01291 18ZM11.7517 15.9891C11.9051 15.7206 12.0465 15.4325 12.1758 15.1294C12.5011 14.367 12.7634 13.4783 12.9493 12.5031H14.3106C14.7222 12.5031 15.0559 12.1694 15.0559 11.7578C15.0559 11.3461 14.7222 11.0124 14.3106 11.0124H13.1658C13.2323 10.364 13.2671 9.69006 13.2671 9.00002C13.2671 8.30998 13.2323 7.63604 13.1658 6.98761H16.2366C16.4143 7.62806 16.5093 8.30293 16.5093 8.99999C16.5093 12.1759 14.5377 14.8914 11.7517 15.9891ZM15.6439 5.49693C14.8093 3.91733 13.4279 2.67129 11.7516 2.01083C11.9051 2.27936 12.0465 2.56747 12.1758 2.87062C12.5011 3.63302 12.7634 4.52176 12.9493 5.49693H15.6439ZM6.57118 5.49693C6.73323 4.72958 6.94575 4.04064 7.19535 3.45558C7.49053 2.76371 7.8229 2.25159 8.15398 1.92337C8.48194 1.59823 8.76705 1.49071 9.00004 1.49071C9.23304 1.49071 9.51814 1.59823 9.84611 1.92337C10.1772 2.25159 10.5095 2.76371 10.8047 3.45558C11.0543 4.04064 11.2669 4.72958 11.4289 5.49693H6.57118ZM6.22365 9.00002C6.22365 9.69891 6.26212 10.3733 6.33346 11.0124H11.6666C11.738 10.3733 11.7764 9.69891 11.7764 9.00002C11.7764 8.30112 11.738 7.62675 11.6666 6.98761H6.33346C6.26212 7.62675 6.22365 8.30112 6.22365 9.00002Z" fill="#8B5BEF"/>
</svg>
